<svg enable-background="new 0 0 500 500" viewBox="0 0 500 500" xmlns="http://www.w3.org/2000/svg"><path d="m437.656 100.128h-7.083-58.798-37.237-65.881-37.313-65.881-37.237-58.799-7.083c-8.895 0-15.98 6.776-15.98 15.282v7.781 26.101 34.459 27.898 30.566 27.971 30.566 27.97 30.638 17.45 10.448c0 6.992 5.88 12.616 13.116 12.616h9.948 61.587 31.659 71.535 31.584 71.535 31.659 61.587 9.948c7.236 0 13.116-5.623 13.116-12.616v-10.448-17.45-30.638-27.97-30.566-27.971-30.566-27.898-34.459-26.101-7.781c-.002-8.507-7.087-15.282-15.982-15.282z" fill="#fff" stroke="#fff" stroke-miterlimit="10" stroke-width="10"/><path d="m62.344 100.128h65.881c8.819 0 15.98 6.776 15.98 15.282v33.882c0 8.434-7.161 15.282-15.98 15.282h-65.881c-8.895 0-15.98-6.848-15.98-15.282v-33.882c0-8.507 7.085-15.282 15.98-15.282z" fill="#1f9900"/><g fill="#69ad36"><path d="m59.479 171.135h71.535c7.312 0 13.191 5.623 13.191 12.616v27.898c0 6.992-5.88 12.616-13.191 12.616h-71.535c-7.236 0-13.116-5.623-13.116-12.616v-27.898c.001-6.993 5.88-12.616 13.116-12.616z"/><path d="m59.479 229.671h71.535c7.312 0 13.191 5.623 13.191 12.543v27.971c0 6.992-5.88 12.543-13.191 12.543h-71.535c-7.236 0-13.116-5.551-13.116-12.543v-27.971c.001-6.92 5.88-12.543 13.116-12.543z"/><path d="m59.479 288.207h71.535c7.312 0 13.191 5.551 13.191 12.544v27.97c0 6.921-5.88 12.544-13.191 12.544h-71.535c-7.236 0-13.116-5.623-13.116-12.544v-27.97c.001-6.993 5.88-12.544 13.116-12.544z"/></g><path d="m165.462 100.128h65.881c8.895 0 15.98 6.776 15.98 15.282v33.882c0 8.434-7.086 15.282-15.98 15.282h-65.881c-8.819 0-15.98-6.848-15.98-15.282v-33.882c0-8.507 7.161-15.282 15.98-15.282z" fill="#1f9900"/><path d="m162.673 171.135h71.535c7.236 0 13.116 5.623 13.116 12.616v27.898c0 6.992-5.88 12.616-13.116 12.616h-71.535c-7.312 0-13.191-5.623-13.191-12.616v-27.898c0-6.993 5.88-12.616 13.191-12.616z" fill="#c0dba4"/><path d="m162.673 229.671h71.535c7.236 0 13.116 5.623 13.116 12.543v27.971c0 6.992-5.88 12.543-13.116 12.543h-71.535c-7.312 0-13.191-5.551-13.191-12.543v-27.971c0-6.92 5.88-12.543 13.191-12.543z" fill="#c0dba4"/><path d="m162.673 288.207h71.535c7.236 0 13.116 5.551 13.116 12.544v27.97c0 6.921-5.88 12.544-13.116 12.544h-71.535c-7.312 0-13.191-5.623-13.191-12.544v-27.97c0-6.993 5.88-12.544 13.191-12.544z" fill="#c0dba4"/><path d="m268.656 100.128h65.881c8.819 0 15.98 6.776 15.98 15.282v33.882c0 8.434-7.161 15.282-15.98 15.282h-65.881c-8.895 0-15.98-6.848-15.98-15.282v-33.882c0-8.507 7.086-15.282 15.98-15.282z" fill="#1f9900"/><path d="m265.792 171.135h71.535c7.312 0 13.191 5.623 13.191 12.616v27.898c0 6.992-5.88 12.616-13.191 12.616h-71.535c-7.236 0-13.116-5.623-13.116-12.616v-27.898c0-6.993 5.88-12.616 13.116-12.616z" fill="#c0dba4"/><path d="m265.792 229.671h71.535c7.312 0 13.191 5.623 13.191 12.543v27.971c0 6.992-5.88 12.543-13.191 12.543h-71.535c-7.236 0-13.116-5.551-13.116-12.543v-27.971c0-6.92 5.88-12.543 13.116-12.543z" fill="#c0dba4"/><path d="m265.792 288.207h71.535c7.312 0 13.191 5.551 13.191 12.544v27.97c0 6.921-5.88 12.544-13.191 12.544h-71.535c-7.236 0-13.116-5.623-13.116-12.544v-27.97c0-6.993 5.88-12.544 13.116-12.544z" fill="#c0dba4"/><path d="m371.775 100.128h65.881c8.895 0 15.98 6.776 15.98 15.282v33.882c0 8.434-7.086 15.282-15.98 15.282h-65.881c-8.819 0-15.98-6.848-15.98-15.282v-33.882c-.001-8.507 7.16-15.282 15.98-15.282z" fill="#1f9900"/><path d="m368.986 171.135h71.535c7.236 0 13.116 5.623 13.116 12.616v27.898c0 6.992-5.88 12.616-13.116 12.616h-71.535c-7.312 0-13.191-5.623-13.191-12.616v-27.898c-.001-6.993 5.879-12.616 13.191-12.616z" fill="#c0dba4"/><path d="m368.986 229.671h71.535c7.236 0 13.116 5.623 13.116 12.543v27.971c0 6.992-5.88 12.543-13.116 12.543h-71.535c-7.312 0-13.191-5.551-13.191-12.543v-27.971c-.001-6.92 5.879-12.543 13.191-12.543z" fill="#c0dba4"/><path d="m368.986 288.207h71.535c7.236 0 13.116 5.551 13.116 12.544v27.97c0 6.921-5.88 12.544-13.116 12.544h-71.535c-7.312 0-13.191-5.623-13.191-12.544v-27.97c-.001-6.993 5.879-12.544 13.191-12.544z" fill="#c0dba4"/><path d="m59.479 346.743h71.535c7.312 0 13.191 5.623 13.191 12.616v27.899c0 6.992-5.88 12.616-13.191 12.616h-71.535c-7.236 0-13.116-5.623-13.116-12.616v-27.899c.001-6.993 5.88-12.616 13.116-12.616z" fill="#69ad36"/><path d="m162.673 346.743h71.535c7.236 0 13.116 5.623 13.116 12.616v27.899c0 6.992-5.88 12.616-13.116 12.616h-71.535c-7.312 0-13.191-5.623-13.191-12.616v-27.899c0-6.993 5.88-12.616 13.191-12.616z" fill="#c0dba4"/><path d="m265.792 346.743h71.535c7.312 0 13.191 5.623 13.191 12.616v27.899c0 6.992-5.88 12.616-13.191 12.616h-71.535c-7.236 0-13.116-5.623-13.116-12.616v-27.899c0-6.993 5.88-12.616 13.116-12.616z" fill="#c0dba4"/><path d="m368.986 346.743h71.535c7.236 0 13.116 5.623 13.116 12.616v27.899c0 6.992-5.88 12.616-13.116 12.616h-71.535c-7.312 0-13.191-5.623-13.191-12.616v-27.899c-.001-6.993 5.879-12.616 13.191-12.616z" fill="#c0dba4"/></svg>